<svg width="164" height="189" viewBox="0 0 164 189" fill="none" xmlns="http://www.w3.org/2000/svg">
<path d="M74.7987 4.79148C79.1609 1.88904 84.8391 1.88904 89.2013 4.79147L147.215 43.3918C150.838 45.8019 153.014 49.8642 153.014 54.215V134.785C153.014 139.136 150.838 143.198 147.215 145.608L89.2013 184.209C84.8391 187.111 79.1609 187.111 74.7987 184.209L16.7846 145.608C13.1624 143.198 10.9859 139.136 10.9859 134.785V54.215C10.9859 49.8642 13.1624 45.8019 16.7846 43.3918L74.7987 4.79148Z" fill="#0D50D2"/>
<path d="M75.9201 29.0324C79.605 26.5885 84.395 26.5885 88.0799 29.0324L129.474 56.4868C132.547 58.5248 134.395 61.9667 134.395 65.6539V123.346C134.395 127.033 132.547 130.475 129.474 132.513L88.0799 159.968C84.395 162.412 79.605 162.412 75.9201 159.968L34.5256 132.513C31.4528 130.475 29.6055 127.033 29.6055 123.346V65.6539C29.6055 61.9667 31.4528 58.5248 34.5255 56.4868L75.9201 29.0324Z" fill="#FFFFF5"/>
</svg>
