<svg width="164" height="164" viewBox="0 0 164 164" fill="none" xmlns="http://www.w3.org/2000/svg">
<path d="M79.0555 15.0931C79.6864 11.859 84.3136 11.859 84.9445 15.0931L92.6159 54.4159C92.9999 56.3839 95.1692 57.4286 96.9472 56.5017L132.474 37.9821C135.396 36.459 138.281 40.0766 136.146 42.5863L110.185 73.1015C108.886 74.6287 109.422 76.976 111.255 77.7883L147.885 94.0175C150.897 95.3523 149.868 99.8634 146.574 99.7589L106.53 98.4878C104.526 98.4242 103.025 100.307 103.533 102.246L113.683 141.003C114.517 144.191 110.349 146.199 108.377 143.559L84.4037 111.458C83.2039 109.852 80.7961 109.852 79.5963 111.458L55.6231 143.559C53.6514 146.199 49.4825 144.191 50.3173 141.003L60.4671 102.246C60.975 100.307 59.4739 98.4242 57.4698 98.4878L17.4258 99.7589C14.1324 99.8634 13.1027 95.3523 16.1154 94.0175L52.7452 77.7883C54.5784 76.976 55.1142 74.6287 53.815 73.1015L27.8542 42.5863C25.7191 40.0766 28.604 36.459 31.5259 37.9821L67.0528 56.5017C68.8308 57.4286 71.0001 56.3839 71.3841 54.4159L79.0555 15.0931Z" fill="#E80D1F"/>
<path d="M80.0475 51.3031C80.5108 49.2139 83.4892 49.2139 83.9525 51.3031L87.4485 67.0647C87.7288 68.3282 89.1172 68.9969 90.2798 68.4282L104.782 61.3342C106.705 60.3939 108.562 62.7225 107.217 64.3874L97.074 76.9478C96.2608 77.9547 96.6038 79.4571 97.7733 80.0115L112.362 86.9271C114.295 87.8438 113.633 90.7474 111.493 90.7343L95.3485 90.6353C94.0542 90.6274 93.0934 91.8322 93.3891 93.0923L97.0781 108.81C97.567 110.893 94.8837 112.185 93.5597 110.504L83.5713 97.8203C82.7705 96.8035 81.2295 96.8035 80.4287 97.8203L70.4403 110.504C69.1163 112.185 66.433 110.893 66.9219 108.81L70.6109 93.0923C70.9066 91.8322 69.9458 90.6274 68.6515 90.6353L52.5072 90.7343C50.3673 90.7474 49.7045 87.8438 51.6383 86.9271L66.2267 80.0115C67.3962 79.4571 67.7392 77.9547 66.926 76.9478L56.7828 64.3874C55.4383 62.7225 57.2952 60.3939 59.2176 61.3342L73.7202 68.4282C74.8828 68.9969 76.2712 68.3282 76.5515 67.0647L80.0475 51.3031Z" fill="#E69FC7"/>
</svg>
