<svg width="72" height="77" viewBox="0 0 72 77" fill="none" xmlns="http://www.w3.org/2000/svg">
<path d="M32.1929 2.81059C33.3846 -0.886473 38.6154 -0.886476 39.8071 2.81059L45.0236 18.9934C45.6565 20.9569 47.6789 22.117 49.6933 21.6721L67.1191 17.8232C71.0664 16.9514 73.668 21.8168 70.7512 24.6154L59.2883 35.6137C57.6474 37.1881 57.6474 39.8119 59.2882 41.3863L70.7512 52.3846C73.668 55.1833 71.0664 60.0486 67.1191 59.1768L49.6933 55.3279C47.6789 54.883 45.6565 56.0431 45.0236 58.0066L39.8071 74.1894C38.6154 77.8865 33.3846 77.8865 32.1929 74.1894L26.9764 58.0066C26.3435 56.0431 24.3211 54.883 22.3067 55.3279L4.88086 59.1768C0.93364 60.0486 -1.66803 55.1832 1.24885 52.3846L12.7118 41.3863C14.3526 39.8119 14.3526 37.1881 12.7118 35.6137L1.24885 24.6154C-1.66803 21.8168 0.933643 16.9514 4.88087 17.8232L22.3067 21.6721C24.3211 22.117 26.3435 20.9569 26.9764 18.9934L32.1929 2.81059Z" fill="#E69FC7"/>
</svg>
