<svg width="95" height="93" viewBox="0 0 95 93" fill="none" xmlns="http://www.w3.org/2000/svg">
<path d="M42.8493 3.78024C44.5148 -0.438373 50.4852 -0.438367 52.1507 3.78025L58.0605 18.7497C59.0184 21.1763 61.681 22.4585 64.1754 21.6945L79.5637 16.9816C83.9003 15.6535 87.6228 20.3214 85.363 24.2538L77.344 38.2075C76.0442 40.4694 76.7018 43.3505 78.8543 44.8244L92.1334 53.917C95.8757 56.4794 94.5471 62.3002 90.0637 62.9852L74.1544 65.4157C71.5756 65.8097 69.7331 68.1202 69.9228 70.722L71.0933 86.7732C71.4232 91.2967 66.044 93.8872 62.713 90.809L50.8935 79.8861C48.9776 78.1155 46.0224 78.1155 44.1065 79.8861L32.287 90.809C28.956 93.8872 23.5768 91.2967 23.9067 86.7732L25.0772 70.722C25.2669 68.1202 23.4244 65.8097 20.8456 65.4157L4.93634 62.9852C0.452893 62.3002 -0.875658 56.4794 2.86659 53.917L16.1457 44.8244C18.2982 43.3505 18.9558 40.4694 17.656 38.2075L9.63703 24.2537C7.37718 20.3214 11.0997 15.6535 15.4364 16.9816L30.8247 21.6945C33.319 22.4585 35.9816 21.1763 36.9395 18.7497L42.8493 3.78024Z" fill="#E69FC7"/>
</svg>
